HIERARCHY
ROOT Hips
{
	OFFSET 0.00000 0.00000 0.00000
	CHANNELS 6 Xposition Yposition Zposition Zrotation Yrotation Xrotation 
	JOINT LHipJoint
	{
		OFFSET 0 0 0
		CHANNELS 3 Zrotation Yrotation Xrotation
		JOINT LeftUpLeg
		{
			OFFSET 1.46561 -1.72757 0.83774
			CHANNELS 3 Zrotation Yrotation Xrotation
			JOINT LeftLeg
			{
				OFFSET 2.48915 -6.83890 0.00000
				CHANNELS 3 Zrotation Yrotation Xrotation
				JOINT LeftFoot
				{
					OFFSET 2.60555 -7.15868 0.00000
					CHANNELS 3 Zrotation Yrotation Xrotation
					JOINT LeftToeBase
					{
						OFFSET 0.19248 -0.52884 2.26738
						CHANNELS 3 Zrotation Yrotation Xrotation
						End Site
						{
							OFFSET 0.00000 -0.00000 1.17015
						}
					}
				}
			}
		}
	}
	JOINT RHipJoint
	{
		OFFSET 0 0 0
		CHANNELS 3 Zrotation Yrotation Xrotation
		JOINT RightUpLeg
		{
			OFFSET -1.46918 -1.72757 0.83774
			CHANNELS 3 Zrotation Yrotation Xrotation
			JOINT RightLeg
			{
				OFFSET -2.49034 -6.84216 0.00000
				CHANNELS 3 Zrotation Yrotation Xrotation
				JOINT RightFoot
				{
					OFFSET -2.65971 -7.30750 0.00000
					CHANNELS 3 Zrotation Yrotation Xrotation
					JOINT RightToeBase
					{
						OFFSET -0.19227 -0.52827 2.30785
						CHANNELS 3 Zrotation Yrotation Xrotation
						End Site
						{
							OFFSET -0.00000 -0.00000 1.18972
						}
					}
				}
			}
		}
	}
	JOINT LowerBack
	{
		OFFSET 0 0 0
		CHANNELS 3 Zrotation Yrotation Xrotation
		JOINT Spine
		{
			OFFSET 0.02432 2.19909 -0.28000
			CHANNELS 3 Zrotation Yrotation Xrotation
			JOINT Spine1
			{
				OFFSET 0.03714 2.21816 -0.15261
				CHANNELS 3 Zrotation Yrotation Xrotation
				JOINT Neck
				{
					OFFSET 0 0 0
					CHANNELS 3 Zrotation Yrotation Xrotation
					JOINT Neck1
					{
						OFFSET -0.01896 1.56165 0.21681
						CHANNELS 3 Zrotation Yrotation Xrotation
						JOINT Head
						{
							OFFSET 0.02744 1.56009 0.06764
							CHANNELS 3 Zrotation Yrotation Xrotation
							End Site
							{
								OFFSET 0.01212 1.60574 0.00298
							}
						}
					}
				}
				JOINT LeftShoulder
				{
					OFFSET 0 0 0
					CHANNELS 3 Zrotation Yrotation Xrotation
					JOINT LeftArm
					{
						OFFSET 3.05595 1.48048 -0.60794
						CHANNELS 3 Zrotation Yrotation Xrotation
						JOINT LeftForeArm
						{
							OFFSET 5.20607 -0.00000 -0.00000
							CHANNELS 3 Zrotation Yrotation Xrotation
							JOINT LeftHand
							{
								OFFSET 3.39961 -0.00000 0.00000
								CHANNELS 3 Zrotation Yrotation Xrotation
								JOINT LeftFingerBase
								{
									OFFSET 0 0 0
									CHANNELS 3 Zrotation Yrotation Xrotation
									JOINT LeftHandIndex1
									{
										OFFSET 0.51969 -0.00000 0.00000
										CHANNELS 3 Zrotation Yrotation Xrotation
										End Site
										{
											OFFSET 0.41899 -0.00000 0.00000
										}
									}
								}
								JOINT LThumb
								{
									OFFSET 0 0 0
									CHANNELS 3 Zrotation Yrotation Xrotation
									End Site
									{
										OFFSET 0.42539 -0.00000 0.42539
									}
								}
							}
						}
					}
				}
				JOINT RightShoulder
				{
					OFFSET 0 0 0
					CHANNELS 3 Zrotation Yrotation Xrotation
					JOINT RightArm
					{
						OFFSET -2.99052 1.57608 -0.69102
						CHANNELS 3 Zrotation Yrotation Xrotation
						JOINT RightForeArm
						{
							OFFSET -5.32214 -0.00000 0.00000
							CHANNELS 3 Zrotation Yrotation Xrotation
							JOINT RightHand
							{
								OFFSET -3.51208 -0.00000 0.00000
								CHANNELS 3 Zrotation Yrotation Xrotation
								JOINT RightFingerBase
								{
									OFFSET 0 0 0
									CHANNELS 3 Zrotation Yrotation Xrotation
									JOINT RightHandIndex1
									{
										OFFSET -0.58668 -0.00000 0.00000
										CHANNELS 3 Zrotation Yrotation Xrotation
										End Site
										{
											OFFSET -0.47300 -0.00000 0.00000
										}
									}
								}
								JOINT RThumb
								{
									OFFSET 0 0 0
									CHANNELS 3 Zrotation Yrotation Xrotation
									End Site
									{
										OFFSET -0.48022 -0.00000 0.48022
									}
								}
							}
						}
					}
				}
			}
		}
	}
}
MOTION
Frames: 8
Frame Time: .0083333
0.3625 17.5633 -13.8545 0 0 0 0 0 0 -21 0 0 0 0 0 0 0 0 0 0 0 0 0 0 21 0 0 0 0 0 0 0 0 0 0 0 0 0 0 0 0 0 0 0 0 0 0 -16 0 0 21 0 0 11 0 0 0 -8 0 0 0 0 0 0 0 0 0 0 0 0 0 0 0 0 0 0 0 0 8 0 0 0 0 0 0 0 0 0 0 0 0 0 0 0 0 0
0.3625 17.5633 -13.8545 -1.7904 0.3645 5.8114 0.0000 0.0000 0.0000 -16.7156 4.4945 -11.5386 0.6692 5.2314 14.5697 0.3368 0.3131 -11.0808 0.1981 -2.8659 -7.9056 0.0000 0.0000 0.0000 20.2527 0.0045 -11.7229 -1.0042 -6.3767 17.8814 -0.5100 3.1395 -12.7814 -0.0545 -1.5066 4.1438 0.8043 -0.8268 -4.7758 1.6610 -1.2239 1.5494 1.1615 -0.6096 4.2994 -2.7677 -0.4597 -13.3665 1.6403 -0.2875 6.7685 0.9309 -0.1188 4.1974 -0.0000 -0.0000 0.0000 -89.3647 -7.2209 30.2858 9.7258 -16.3096 -1.3970 -0.0000 0.0000 -1.8788 24.4037 -2.7271 -1.2366 -7.1250 0.0000 -0.0000 -1.6788 26.9847 0.7345 -0.0000 -0.0000 0.0000 89.4381 6.0960 5.6167 -12.7857 20.9723 -2.3760 0.0000 0.0000 34.2628 -18.8339 -25.8981 8.4735 7.1250 -0.0000 -0.0000 12.0856 -56.7272 -3.5093
0.3629 17.5631 -13.8538 -1.7587 0.3804 5.8055 0.0000 0.0000 0.0000 -16.7528 4.5313 -11.5434 0.6686 5.2290 14.5628 0.3381 0.2594 -11.0809 0.1968 -2.8570 -7.8809 0.0000 0.0000 0.0000 20.2155 0.0114 -11.7154 -1.0060 -6.3821 17.8972 -0.5100 3.1246 -12.7833 -0.0544 -1.5057 4.1414 0.7773 -0.8258 -4.7867 1.6549 -1.2208 1.5488 1.1705 -0.6086 4.3052 -2.7576 -0.4453 -13.3505 1.6295 -0.2690 6.7099 0.9272 -0.1099 4.1762 -0.0000 0.0000 0.0000 -89.3596 -7.1971 30.1593 9.6789 -16.2358 -1.3838 -0.0000 0.0000 -1.7456 24.3759 -2.8256 -1.2796 -7.1250 0.0000 -0.0000 -1.7001 26.8772 0.7482 -0.0000 0.0000 0.0000 89.4213 6.0878 5.5761 -12.7699 20.9491 -2.3704 0.0000 0.0000 34.3207 -18.9298 -25.8821 8.5144 7.1250 -0.0000 -0.0000 11.9770 -56.7313 -3.4783
0.3640 17.5626 -13.8531 -1.7722 0.3963 5.7940 0.0000 0.0000 0.0000 -16.7419 4.5482 -11.5342 0.6678 5.2262 14.5548 0.3384 0.2388 -11.0777 0.1990 -2.8729 -7.9251 0.0000 0.0000 0.0000 20.2266 0.0222 -11.7016 -1.0073 -6.3861 17.9089 -0.5116 3.1059 -12.8048 -0.0534 -1.4916 4.1025 0.8021 -0.8271 -4.7874 1.6638 -1.2245 1.5472 1.1655 -0.6099 4.3038 -2.7585 -0.4352 -13.3745 1.6171 -0.2534 6.6865 0.9246 -0.1028 4.1725 -0.0000 0.0000 0.0000 -89.3602 -7.1688 30.0209 9.6497 -16.1898 -1.3757 -0.0000 0.0000 -1.6302 24.3776 -2.9154 -1.3203 -7.1250 0.0000 -0.0000 -1.6989 26.7786 0.7516 -0.0000 0.0000 0.0000 89.4015 6.1114 5.4689 -12.7415 20.9073 -2.3602 0.0000 0.0000 34.3805 -18.8913 -25.8348 8.4818 7.1250 -0.0000 -0.0000 11.9933 -56.6759 -3.4670
0.3656 17.5627 -13.8533 -1.7556 0.4041 5.7903 0.0000 0.0000 0.0000 -16.7659 4.5493 -11.5269 0.6670 5.2228 14.5451 0.3384 0.2292 -11.0746 0.1981 -2.8663 -7.9068 0.0000 0.0000 0.0000 20.2016 0.0127 -11.7062 -1.0088 -6.3907 17.9222 -0.5121 3.1089 -12.8113 -0.0543 -1.5039 4.1364 0.8035 -0.8236 -4.7895 1.6607 -1.2199 1.5502 1.1619 -0.6075 4.3079 -2.7697 -0.4346 -13.4110 1.6191 -0.2495 6.6527 0.9273 -0.1008 4.1679 -0.0000 0.0000 0.0000 -89.3521 -7.1571 29.9737 9.6301 -16.1589 -1.3702 -0.0000 0.0000 -1.6460 24.3515 -2.8477 -1.2881 -7.1250 0.0000 -0.0000 -1.7188 26.8536 0.7574 -0.0000 0.0000 0.0000 89.3806 6.1339 5.4231 -12.7292 20.8891 -2.3558 0.0000 0.0000 34.4094 -18.9269 -25.8416 8.5008 7.1250 -0.0000 -0.0000 11.9594 -56.6903 -3.4612
0.3669 17.5626 -13.8530 -1.7439 0.4162 5.7846 0.0000 0.0000 0.0000 -16.7838 4.5626 -11.5236 0.6664 5.2206 14.5389 0.3388 0.2070 -11.0725 0.1986 -2.8695 -7.9157 0.0000 0.0000 0.0000 20.1838 0.0113 -11.7020 -1.0097 -6.3936 17.9309 -0.5127 3.0984 -12.8201 -0.0538 -1.4971 4.1177 0.8062 -0.8225 -4.7937 1.6601 -1.2187 1.5511 1.1597 -0.6069 4.3111 -2.7768 -0.4306 -13.4283 1.6170 -0.2421 6.6150 0.9283 -0.0972 4.1589 0.0000 0.0000 0.0000 -89.3474 -7.1353 29.8947 9.6061 -16.1210 -1.3635 -0.0000 0.0000 -1.6067 24.3438 -2.8514 -1.2893 -7.1250 0.0000 -0.0000 -1.7247 26.8497 0.7601 0.0000 0.0000 0.0000 89.3604 6.1498 5.3678 -12.7144 20.8673 -2.3506 0.0000 0.0000 34.4505 -18.9491 -25.8240 8.5061 7.1250 -0.0000 -0.0000 11.9272 -56.6773 -3.4479
0.3683 17.5625 -13.8529 -1.7333 0.4277 5.7785 0.0000 0.0000 0.0000 -16.8010 4.5747 -11.5152 0.6652 5.2159 14.5253 0.3388 0.1878 -11.0652 0.1989 -2.8718 -7.9219 0.0000 0.0000 0.0000 20.1669 0.0128 -11.6985 -1.0111 -6.3977 17.9429 -0.5135 3.0856 -12.8317 -0.0533 -1.4893 4.0962 0.8103 -0.8212 -4.7971 1.6598 -1.2173 1.5530 1.1572 -0.6061 4.3149 -2.7881 -0.4297 -13.4407 1.6173 -0.2382 6.5732 0.9304 -0.0954 4.1480 0.0000 0.0000 0.0000 -89.3455 -7.1137 29.8160 9.5860 -16.0894 -1.3580 -0.0000 0.0000 -1.5658 24.3412 -2.8506 -1.2888 -7.1250 0.0000 -0.0000 -1.7267 26.8507 0.7609 0.0000 0.0000 0.0000 89.3389 6.1660 5.3215 -12.7025 20.8498 -2.3463 0.0000 0.0000 34.4860 -18.9670 -25.8077 8.5096 7.1250 -0.0000 -0.0000 11.9003 -56.6648 -3.4364
0.3698 17.5624 -13.8526 -1.7228 0.4386 5.7721 0.0000 0.0000 0.0000 -16.8175 4.5877 -11.5096 0.6645 5.2135 14.5184 0.3391 0.1645 -11.0617 0.1986 -2.8699 -7.9168 0.0000 0.0000 0.0000 20.1502 0.0162 -11.6900 -1.0118 -6.4001 17.9498 -0.5141 3.0692 -12.8421 -0.0528 -1.4826 4.0776 0.8149 -0.8196 -4.7981 1.6588 -1.2154 1.5536 1.1536 -0.6050 4.3160 -2.8121 -0.4392 -13.4502 1.6235 -0.2468 6.5296 0.9355 -0.0997 4.1363 0.0000 0.0000 0.0000 -89.3428 -7.0847 29.7417 9.5708 -16.0655 -1.3538 -0.0000 0.0000 -1.5254 24.3433 -2.9405 -1.3296 -7.1250 0.0000 -0.0000 -1.7251 26.7520 0.7643 0.0000 0.0000 0.0000 89.3190 6.1719 5.2883 -12.6941 20.8374 -2.3433 0.0000 0.0000 34.5234 -19.0038 -25.7569 8.5118 7.1250 -0.0000 -0.0000 11.8361 -56.6218 -3.4051
